<svg version="1.1" id="Layer_1" xmlns="http://www.w3.org/2000/svg" xmlns:xlink="http://www.w3.org/1999/xlink" x="0px" y="0px" viewBox="0 0 500 500" style="width: 164px;" xml:space="preserve" data-imageid="progress-100" imageName="Progress" class="illustrations_image">
<style type="text/css">
	.st0_progress-100{fill:#FF65A7;}
	.st1_progress-100{fill:url(#SVGID_1_);}
	.st2_progress-100{fill:url(#SVGID_00000009562574664011096740000007366924771714761898_);}
	.st3_progress-100{fill:url(#SVGID_00000057863064008360992640000006894795548245832071_);}
	.st4_progress-100{fill:url(#SVGID_00000173128834377150538040000017181557068847112577_);}
	.st5_progress-100{fill:#56403D;}
	.st6_progress-100{fill:#68E1FD;}
	.st7_progress-100{fill:#FFFFFF;}
	.st8_progress-100{fill:#2E997F;}
	.st9_progress-100{fill:#F26250;}
	.st10_progress-100{opacity:0.4;fill:#56403D;enable-background:new    ;}
	.st11_progress-100{fill:#B24D16;}
	.st12_progress-100{fill:#FFCEA1;}
	.st13_progress-100{fill:#FFC963;}
</style>
<g id="background_progress-100">
	<path class="st0_progress-100" d="M243.5,427.8L15.4,293c-7.3-4-13.5-10.8-6.4-15.2L237.9,146c3.4-2.1,8.6-3.5,12.1-1.5l239.4,138.9&#10;&#9;&#9;c7.3,4.2,8.6,16,1.3,20.2l-217.2,124C264.2,433,252.8,433.1,243.5,427.8z"/>
	
		<linearGradient id="SVGID_1_-progress-100" gradientUnits="userSpaceOnUse" x1="175.9919" y1="119.398" x2="196.1218" y2="138.168" gradientTransform="matrix(1 0 0 -1 0 502)">
		<stop offset="0" style="stop-color:#FF65A7"/>
		<stop offset="1" style="stop-color:#4F1F34"/>
	</linearGradient>
	<polyline class="st1_progress-100" points="209.6,372.2 184.5,393 158.7,377.8 172,369.3 201.9,364.2 &#9;"/>
	
		<linearGradient id="SVGID_00000027583502381628727250000002450649791174500008_-progress-100" gradientUnits="userSpaceOnUse" x1="155.521" y1="197.609" x2="194.101" y2="233.579" gradientTransform="matrix(1 0 0 -1 0 502)">
		<stop offset="0" style="stop-color:#FF65A7"/>
		<stop offset="1" style="stop-color:#4F1F34"/>
	</linearGradient>
	<polyline style="fill:url(#SVGID_00000027583502381628727250000002450649791174500008_);" points="203.6,292.8 153.9,324.6 &#10;&#9;&#9;125.9,298.8 195.6,258.4 &#9;"/>
	
		<linearGradient id="SVGID_00000101086542084736537240000008067504941595495861_-progress-100" gradientUnits="userSpaceOnUse" x1="322.3895" y1="186.2839" x2="349.4695" y2="228.5539" gradientTransform="matrix(1 0 0 -1 0 502)">
		<stop offset="0" style="stop-color:#FF65A7"/>
		<stop offset="1" style="stop-color:#4F1F34"/>
	</linearGradient>
	<polyline style="fill:url(#SVGID_00000101086542084736537240000008067504941595495861_);" points="361.3,309.2 351.4,349.1 &#10;&#9;&#9;278,306.4 319.5,284.3 &#9;"/>
	
		<linearGradient id="SVGID_00000049901300746557835840000000157789460088610708_-progress-100" gradientUnits="userSpaceOnUse" x1="419.9519" y1="186.5678" x2="455.8019" y2="218.1578" gradientTransform="matrix(1 0 0 -1 0 502)">
		<stop offset="0" style="stop-color:#FF65A7"/>
		<stop offset="1" style="stop-color:#4F1F34"/>
	</linearGradient>
	<polyline style="fill:url(#SVGID_00000049901300746557835840000000157789460088610708_);" points="466.1,299.7 424.2,324.6 &#10;&#9;&#9;399.6,308.5 441.1,286.5 &#9;"/>
</g>
<g id="monitor_progress-100">
	<path class="st5_progress-100" d="M227.1,243.4l24.1,11.6c2.8,1.3,3.9,4.6,2.6,7.4c-0.5,1-1.2,1.8-2.2,2.4l-57,33.3c-2.6,1.5-5.8,0.7-7.4-1.8&#10;&#9;&#9;l-13.9-21.5"/>
	<path class="st6_progress-100 targetColor" d="M96.1,187.7L288,77.2c4.1-2.4,9.4-1,11.8,3.2c0.8,1.3,1.2,2.8,1.2,4.4v115c0,2.6-1.4,4.9-3.6,6.2L92.9,324&#10;&#9;&#9;c-2.2,1.3-5.1,0.6-6.4-1.6c-0.4-0.7-0.6-1.5-0.6-2.4V205.4C85.9,198.1,89.8,191.4,96.1,187.7z" style="fill: rgb(147, 70, 252);"/>
	<path class="st7_progress-100" d="M288,85.8L102,192.9c-4,2.3-6.5,6.6-6.5,11.3v86.2c0,2.6,2.1,4.7,4.7,4.7c0.8,0,1.6-0.2,2.3-0.6l189.7-108.9&#10;&#9;&#9;c1.4-0.8,2.3-2.3,2.3-4v-92c0-2.4-1.9-4.4-4.4-4.4C289.4,85.2,288.7,85.5,288,85.8z"/>
	<path class="st8_progress-100" d="M274.2,115.7v74.1c0,0.3-0.3,0.6-0.6,0.6s-0.6-0.3-0.6-0.6v-74.1c0-0.3,0.3-0.6,0.6-0.6&#10;&#9;&#9;S274.2,115.4,274.2,115.7z"/>
	<path class="st8_progress-100" d="M246.3,132.7v74.1c0,0.4-0.4,0.6-0.7,0.6c-0.3,0-0.5-0.3-0.6-0.6v-74.1c0-0.4,0.4-0.6,0.7-0.6&#10;&#9;&#9;C246.1,132.2,246.3,132.4,246.3,132.7z"/>
	<path class="st8_progress-100" d="M222.7,146.6v74.1c0,0.4-0.4,0.6-0.7,0.6c-0.3,0-0.5-0.3-0.6-0.6v-74.1c0-0.4,0.4-0.6,0.7-0.6&#10;&#9;&#9;C222.5,146.1,222.7,146.3,222.7,146.6z"/>
	<path class="st8_progress-100" d="M189.4,163.3v74.1c0,0.4-0.4,0.6-0.7,0.6c-0.3,0-0.5-0.3-0.6-0.6v-74.1c0-0.4,0.4-0.6,0.7-0.6&#10;&#9;&#9;C189.1,162.8,189.3,163,189.4,163.3z"/>
	<path class="st8_progress-100" d="M169.3,175.6v74.1c0,0.4-0.4,0.6-0.7,0.6c-0.3,0-0.5-0.3-0.6-0.6v-74.1c0-0.4,0.4-0.6,0.7-0.6&#10;&#9;&#9;C169.1,175.1,169.3,175.3,169.3,175.6z"/>
	<path class="st8_progress-100" d="M135.6,193.3v74.1c0,0.4-0.4,0.6-0.7,0.6c-0.3,0-0.5-0.3-0.6-0.6v-74.1c0-0.4,0.4-0.6,0.7-0.6&#10;&#9;&#9;C135.3,192.7,135.5,193,135.6,193.3z"/>
	<path class="st9_progress-100" d="M273.7,165.7v9.3l-27.3-12.2c0,0-23.4,38.7-23.8,38.6l-33.5-8l-19.5,33.3l-47.2-9.9l1.7-6.3l41.6,7.6&#10;&#9;&#9;l21.8-33.7l30.8,10.4l27.2-41.1L273.7,165.7z"/>
	<polygon class="st9_progress-100" points="134.9,199.7 126,231.6 112.5,210.6 &#9;"/>
</g>
<g id="plant_progress-100">
	<path class="st6_progress-100 targetColor" d="M439.8,259c-0.8,0.4-1.1,1.8-1.3,2.6c-0.4,1.2-0.9,2.5-1.4,3.7c-3.5,8.9-6.9,17.8-8.7,27.2&#10;&#9;&#9;c-0.4,2.1-1,3.9,0.8,5.6c3.2,3,8.1,4,12.3,4.8c8.3,1.5,16.9,0.4,24.6-3.1c2.6-1.3,3.9-4.3,3-7c-3.4-10.3-11.5-34.1-13-34.3&#10;&#9;&#9;C454.2,258.1,448.5,255,439.8,259z" style="fill: rgb(147, 70, 252);"/>
	<path class="st10_progress-100" d="M469.1,292.6c-2.7-8-8.2-24.5-11.2-31.3c0.2,15-5.1,31.1-15.8,41.5c8.1,1.3,16.5,0.2,24-3.2&#10;&#9;&#9;C468.7,298.4,470,295.4,469.1,292.6z"/>
	<ellipse class="st11_progress-100" cx="448.1" cy="259.8" rx="9.1" ry="3.3"/>
	<path class="st8_progress-100" d="M443.9,259.1c-0.9-2.5-2-5-3.3-7.3h0.1c2.1-0.8,1.6-4.6,1.2-6.2c-0.1-0.4-0.5-0.6-0.9-0.5&#10;&#9;&#9;c-0.2,0.1-0.3,0.2-0.4,0.3c-0.7,1.2-1.2,2.6-1.5,3.9c-0.2-0.4-0.5-0.8-0.8-1.2v-0.1c0.2-0.5,0.4-1.1,0.5-1.6&#10;&#9;&#9;c0.1-0.3,0.2-0.5,0.2-0.8c0.5-1.5,0.6-3.2,0.5-4.8c0-0.1,0-0.2-0.1-0.3c-0.1-0.3-0.5-0.5-0.8-0.4c-1,0.2-1.5,1.6-1.7,2.5&#10;&#9;&#9;c-0.3,1-0.4,1.9-0.4,2.9c-0.6-0.9-1.3-1.7-2-2.6c0,0,0,0,0-0.1c0.6-1.9,1.7-5,0.3-6.8c-0.2-0.2-0.4-0.2-0.7-0.2&#10;&#9;&#9;c-1,0.2-1.2,1.2-1.2,2.1c0,1.1,0,2.2,0.2,3.3c-1-1.1-2-2.3-3.1-3.3c-0.6-0.6-1.6,0.4-1,1s1.1,1.1,1.6,1.7c-1.5-0.4-2.9-0.4-3.4,0.9&#10;&#9;&#9;c-1,2.8,4.5,2.4,6.1,2.2c0.4,0.5,0.8,1,1.1,1.5c-0.5-0.1-1,0-1.5,0.3c-0.7,0.4-1,1.3-0.6,2c0.1,0.2,0.3,0.4,0.4,0.5&#10;&#9;&#9;c0.6,0.3,1.2,0.4,1.9,0.3h2.1c0.4,0.6,0.7,1.1,1.1,1.7c-0.9-0.3-1.9-0.2-2.8,0.2c-0.7,0.4-0.9,1.3-0.5,2c0.1,0.2,0.2,0.3,0.3,0.4&#10;&#9;&#9;c1,0.9,3,0.4,4.3,0.3c0.1,0,0.2,0,0.3-0.1c1.2,2.1,2.2,4.4,3,6.7C442.9,260.3,444.2,260,443.9,259.1z"/>
	<path class="st8_progress-100" d="M430.9,239.2c0,0-0.6-7.2-6.5-7.3C424.3,231.9,422.6,238.7,430.9,239.2z"/>
	<path class="st8_progress-100" d="M451.1,258.9c1-2.7,2.1-5.3,3.5-7.8h-0.2c-2.2-0.8-1.7-4.8-1.3-6.6c0.1-0.4,0.5-0.6,0.9-0.5&#10;&#9;&#9;c0.2,0.1,0.3,0.2,0.4,0.3c0.7,1.3,1.3,2.7,1.6,4.2c0.3-0.4,0.5-0.9,0.8-1.3c0,0,0,0,0-0.1c-0.2-0.6-0.4-1.2-0.6-1.8&#10;&#9;&#9;c-0.1-0.3-0.2-0.5-0.2-0.8c-0.5-1.6-0.7-3.4-0.6-5.1c0-0.1,0.1-0.2,0.1-0.4c0.2-0.3,0.5-0.5,0.9-0.4c1.1,0.2,1.6,1.7,1.8,2.6&#10;&#9;&#9;c0.3,1,0.4,2.1,0.5,3.1c0.7-0.9,1.4-1.8,2.1-2.7c0,0,0-0.1,0-0.1c-0.7-2-1.8-5.3-0.3-7.2c0.2-0.2,0.5-0.3,0.7-0.2&#10;&#9;&#9;c1,0.2,1.2,1.3,1.3,2.2c0,1.2,0,2.4-0.2,3.5c1.1-1.2,2.2-2.4,3.3-3.5c0.7-0.7,1.7,0.4,1,1s-1.2,1.2-1.7,1.8&#10;&#9;&#9;c1.6-0.4,3.1-0.4,3.6,0.9c1.1,3-4.8,2.6-6.5,2.4c-0.4,0.5-0.8,1-1.2,1.6c0.5-0.1,1.1,0.1,1.5,0.3c0.8,0.3,1.2,1.2,0.9,2&#10;&#9;&#9;c-0.1,0.3-0.3,0.5-0.5,0.7c-0.6,0.3-1.3,0.4-2,0.3h-2.3c-0.4,0.6-0.8,1.2-1.1,1.8c1-0.3,2-0.2,2.9,0.2c0.7,0.4,1,1.4,0.6,2.1&#10;&#9;&#9;c-0.1,0.2-0.2,0.3-0.4,0.4c-1.1,0.9-3.2,0.5-4.5,0.3c-0.1,0-0.2,0-0.3-0.1c-1.2,2.3-2.2,4.6-3.1,7.1&#10;&#9;&#9;C452.2,260.2,450.8,259.8,451.1,258.9z"/>
	<path class="st8_progress-100" d="M465,237.7c0,0,0.6-7.6,6.9-7.8C471.9,230,473.7,237.2,465,237.7z"/>
	<path class="st8_progress-100" d="M447.3,258.3c0.6-3.3,1-6.7,1.1-10.1l0.2,0.1c2.8,0.5,4.6-4,5.3-6c0.1-0.5-0.2-1-0.6-1.1&#10;&#9;&#9;c-0.2-0.1-0.4,0-0.6,0.1c-1.5,0.9-2.9,2-4.2,3.3c0-0.6,0-1.2,0-1.8l0.1-0.1c0.5-0.5,1.1-1,1.6-1.4c0.3-0.2,0.5-0.5,0.7-0.7&#10;&#9;&#9;c1.5-1.4,2.7-3,3.6-4.9c0.1-0.1,0.1-0.3,0.1-0.4c0-0.4-0.2-0.8-0.6-0.9c-1.2-0.4-2.7,0.8-3.5,1.6c-0.9,0.9-1.7,1.9-2.3,2.9&#10;&#9;&#9;c-0.1-1.4-0.3-2.7-0.5-4.1l0.1-0.1c1.9-1.7,5-4.4,4.7-7.3c-0.1-0.3-0.3-0.5-0.6-0.6c-1.2-0.4-2.1,0.6-2.7,1.5&#10;&#9;&#9;c-0.8,1.2-1.4,2.4-1.9,3.7c-0.4-1.9-0.8-3.8-1.3-5.6c-0.2-0.5-0.7-0.7-1.1-0.5c-0.4,0.1-0.6,0.5-0.5,0.9c0.3,0.9,0.5,1.9,0.7,2.9&#10;&#9;&#9;c-1.4-1.4-3-2.3-4.3-1.2c-2.9,2.4,3.4,5.5,5.2,6.3c0.1,0.8,0.2,1.6,0.3,2.3c-0.5-0.4-1.1-0.6-1.8-0.6c-1.4-0.1-2.7,1.1-2,2.6&#10;&#9;&#9;c0.4,0.7,1.1,1.2,1.9,1.6l2.4,1.4c0,0.9,0.1,1.7,0.1,2.6c-0.8-0.9-1.9-1.5-3.1-1.5c-1,0-1.9,0.9-1.9,1.9c0,0.2,0,0.4,0.1,0.6&#10;&#9;&#9;c0.6,1.6,3,2.4,4.5,3c0.1,0,0.2,0.1,0.3,0.1c-0.1,3.1-0.5,6.1-1,9.1C445.4,258.9,447.1,259.4,447.3,258.3z"/>
	<path class="st8_progress-100" d="M445.7,228.2c0,0,3.9-8.2-2.5-12.1C443.3,216.1,437,222.4,445.7,228.2z"/>
</g>
<g id="character_2_progress-100">
	<path class="st12_progress-100" d="M278.6,151.9c0.7,0.5,1.4,1,2.1,1.6c-0.4-0.6-0.5-1.4-0.4-2.1c0.1-0.7,0.8-1.2,1.5-1.1c0.3,0,0.6,0.2,0.8,0.4&#10;&#9;&#9;c1.7,1.9,3.4,3.8,5.1,5.7c0-0.2,0-0.4,0.1-0.5c0.1-1.1,0.3-2.2,0.9-3.2c1.2-1.6,2.4,0,2.5,1.7c0.1,2.2-0.5,4.3,0.6,6.5&#10;&#9;&#9;c0.7,1.1,1.7,2,2.8,2.7c1,0.8,2.1,1.6,3.2,2.4c0.6,0.4,0.6,1.2,0.2,1.8c-0.3,0.3-0.7,0.5-1.1,0.5c0.4,0.5,0.3,1.3-0.2,1.7&#10;&#9;&#9;c-0.2,0.2-0.4,0.2-0.7,0.3c0.2,1.1-1,2.2-1.9,1.3c-2.3-2.3-4.9-4.3-7.6-6.1c-2.9-1.3-5.7-2.7-8.4-4.2c-1.4-0.8-0.5-3.1,1-2.4&#10;&#9;&#9;l0.2,0.1l-2.4-1.5c-1.2-0.7,0-2.9,1.2-2.2l0.3,0.2l0,0h0l0.8,0.5l-1.1-0.9c-0.7-0.6-1.3-1-1.4-2c-0.1-0.7,0.4-1.3,1.2-1.4&#10;&#9;&#9;C278.1,151.6,278.4,151.7,278.6,151.9z"/>
	<path class="st5_progress-100" d="M287.2,157.7c0.2-0.3,0.7,0.1,0.5,0.4c-1,1.4-1.2,3.2-0.4,4.7c0.2,0.3-0.4,0.5-0.5,0.2&#10;&#9;&#9;C285.9,161.2,286.1,159.2,287.2,157.7z"/>
	<path class="st5_progress-100" d="M280.7,153c1.7,1.3,3.4,2.6,5,4c0.3,0.2-0.1,0.7-0.4,0.4c-1.6-1.4-3.3-2.7-5-4c-0.1-0.1-0.1-0.3,0-0.4&#10;&#9;&#9;C280.4,152.9,280.6,152.9,280.7,153z"/>
	<path class="st5_progress-100" d="M278.3,155.1l5.7,3.4c0.3,0.2,0,0.6-0.4,0.4l-5.6-3.4C277.7,155.4,278,155,278.3,155.1z"/>
	<path class="st5_progress-100" d="M278.3,158.3c1.6,0.8,3.2,1.5,4.8,2.2c0.3,0.1,0.1,0.7-0.2,0.5c-1.6-0.7-3.2-1.4-4.8-2.2&#10;&#9;&#9;C277.8,158.6,278,158.1,278.3,158.3z"/>
	<polygon class="st9_progress-100" points="379.6,172.4 372.3,159.1 368,152.3 384.4,144.4 394.9,165.9 &#9;"/>
	<path class="st12_progress-100" d="M362.5,170c1.5-1.7,3.1-3.4,4.7-5.2c0.4-0.3,0.7-0.7,1-1.1c0.3-0.7,0.4-1.4,0.3-2.2c0.1-1.1,0.3-2.1,0.6-3.1&#10;&#9;&#9;c0.2-0.7,0.9-1.1,1.6-0.9c0.5,0.2,0.9,0.6,0.9,1.2c0,0.7,0,1.3-0.1,2l1.1-1c1.5,2.8,3.1,5.5,4.8,8.2c-0.9,0.1-1.8,0.1-2.8,0.1&#10;&#9;&#9;c-3.3,2-6.3,4.5-8.7,7.5c-0.4,0.5-1.2,0.5-1.7,0.1c-0.1-0.1-0.3-0.3-0.3-0.5c-0.1,0-0.3-0.1-0.4-0.1h-0.1c-0.6-0.4-0.8-1.1-0.5-1.7&#10;&#9;&#9;v-0.1c0.1-0.3,0.3-0.5,0.6-0.6c0.3-0.3,0.5-0.6,0.8-0.9c-0.1,0.1-0.1,0.1-0.2,0.2C363.2,173,361.4,171.2,362.5,170z"/>
	<path class="st5_progress-100" d="M372,166c0.5-0.7,0.9-1.5,1-2.4c-0.1-0.9-0.4-1.7-0.9-2.4c-0.2-0.3,0.3-0.6,0.5-0.3c0.6,0.8,1,1.7,1,2.6&#10;&#9;&#9;c-0.1,1-0.5,1.9-1,2.7c-0.1,0.1-0.3,0.2-0.4,0.1C372,166.3,371.9,166.1,372,166z"/>
	<path class="st5_progress-100" d="M318.4,273.8c0,0-0.2,8.6-1.2,10s-10.1,6.1-10.6,8.3s1.1,5.4,5.4,4.2s14.7-7.9,14.7-7.9v-18.7"/>
	<path class="st5_progress-100" d="M353,283.6l1.1,9.4c0,0-4,14.4-2.4,16.2s7.3,3.6,9.5,0s-1-17.1-1-17.1l-0.2-10.1"/>
	<path class="st8_progress-100" d="M332.2,184.6c0,0-11.2,45.5-11.7,52.5s-3.9,40.9-3.9,40.9s10.6,4.7,17.8,2.3l5.6-42.8l6.3-44.8&#10;&#9;&#9;C346.4,192.8,334.9,181.4,332.2,184.6z"/>
	<path class="st8_progress-100" d="M353.8,195.4c7.9,33.6,8.9,58.9,12.9,88.3c0,0-17.1,6.3-20.9,0.2c-2.6-29.9-4.6-59.9-5.6-89.9L353.8,195.4z"/>
	<path class="st13_progress-100" d="M351.4,160.7c-0.1-0.1-0.2-0.3-0.4-0.4c-2.5-2.2-7.8-1.3-11.4-0.3c-0.4,0.5-1.1,0.7-1.7,0.7h-0.3&#10;&#9;&#9;c-0.5,0.1-0.9,0.1-1.4,0c-2.5,0.1-7-1.8-10.7,1.2s-0.2,7.5,0.2,11.5c0.2,2.1,0.5,4.2,0.8,6.2c2.4,2.6,4.6,5.8,6.8,6.9&#10;&#9;&#9;c1.5,0.8,3.6,3.3,5.2,3.5c0.6,0.1,1.1-0.3,1.7-0.5c2.2-0.8,3.5-11,5.5-10.3c1.7,0.6,4.3,8.6,6,9.4c0.6-0.1,1.2-0.3,1.8-0.4&#10;&#9;&#9;C354.6,179,355.1,168.9,351.4,160.7z"/>
	<path class="st13_progress-100" d="M343.4,197.3c4.2-0.2,6.5-0.3,10.4-1.9l0.7-22l-27.8,6.2c0,0,2.3,11.5,3.5,16.4&#10;&#9;&#9;C334.4,197.2,338.9,197.6,343.4,197.3z"/>
	<polygon class="st8_progress-100" points="339.3,161.9 335.7,166.6 334,161.1 &#9;"/>
	<polygon class="st8_progress-100" points="335.8,164.5 339.3,187.8 335.7,193.9 332.3,186.2 &#9;"/>
	<path class="st11_progress-100" d="M342.8,157.9c0.3,0.8,1,2.3,1.4,3.1l-4.5,5.7l-3.5-4.9l-3.2,3.5l-1.5-7.8C331.5,157.4,338,156.6,342.8,157.9z&#10;&#9;&#9;"/>
	<path class="st12_progress-100" d="M331.3,149.5c-1,4.8-0.2,12,5,12.2s8.3-3.5,7.9-9.1c-0.3-4.4-2.6-11.3-8.5-9.3c-1.5,0.6-2.6,1.7-3.3,3.1&#10;&#9;&#9;C331.9,147.4,331.5,148.5,331.3,149.5z"/>
	<path class="st5_progress-100" d="M330.9,150.6c-2.7-1.4-4.3-4.3-4.1-7.4c0.3-3,3.1-6.7,6.5-5.3c2.2,0.9,1.6,1,1.6,1s1.2-1.8,4.4-1.6&#10;&#9;&#9;s3.7,2.2,3.7,2.2s3.6,1.2,4.5,3.4c1.1,2.6-1.4,10.3-2.5,12.5s-1.8-2.2-2.2-4c-0.3-1.4-1.3-2.7-2.6-3.2c-1.9-0.5-2.9,1.2-4.4,1.9&#10;&#9;&#9;S332.4,151.3,330.9,150.6z"/>
	<path class="st13_progress-100" d="M350.8,160.1c1.6,0.8,6.9,13.5,7.7,13.4s5.4-9.3,6.9-9.4s5.7,4.6,6.7,5.8s-10.7,21-16.1,21.9&#10;&#9;&#9;s-7.6-5.5-7.6-5.5"/>
	<path class="st13_progress-100" d="M310.6,170.1c-1.9,0.1-11.2-6.6-16.8-10.6c-3.1,2.1-5.9,4.6-8.2,7.5c5.9,5.5,19.7,16.9,25.3,17.2&#10;&#9;&#9;c7.3,0.4,19.9-5.5,19.9-5.5l-5.3-16.8C325.6,161.9,313.3,169.9,310.6,170.1z"/>
</g>
<g id="character_1_progress-100">
	<path class="st12_progress-100" d="M196,246.9c-0.1-0.1-0.2-0.3-0.2-0.5l-0.1-0.1l-0.2-0.1c0.1,0,0.2,0,0.3,0c-0.1-1.8-0.2-3.7-0.4-5.5l0,0&#10;&#9;&#9;c0,0-0.5,2.5-0.5,2.4s-1.4-1.8-1.4-1.8c-1.5-1.8-1.1-4.5-2.5-6.4c0,0,0-0.1,0-0.1c-0.3-1.3-1.1-2.5-2.1-3.3c-0.8-0.7-1.9,0.1-2,1&#10;&#9;&#9;c0,0.4,0,0.7,0,1.1c-0.7-1-1.4-2.1-2-3.2c-0.8-1.4-3-0.2-2.2,1.3l0.3,0.5c-1-1.2-3.1,0.1-2.1,1.3l0.4,0.5c-0.7,0.2-1.1,1-0.9,1.7&#10;&#9;&#9;c0.1,0.2,0.1,0.3,0.2,0.4c0.2,0.3,0.5,0.5,0.7,0.8c-0.3,0.5-0.2,1.1,0.1,1.5c1.4,1.7,3,3.3,4.8,4.5c0.3,0.3,0.8,0.3,1.1,0.1&#10;&#9;&#9;c0.4,0.3,0.9,0.6,1.4,0.8l5,4.3c0.6,0.5,1.4,0.5,2,0C195.9,247.7,196,247.3,196,246.9z"/>
	<path class="st12_progress-100" d="M161.7,237.3c0-0.1,0-0.1-0.1-0.2c0.5-1,0.9-2.1,1.2-3.2c0.2-0.9,0.4-2.1-0.4-2.6c-0.3-0.2-0.7-0.1-0.9,0.2&#10;&#9;&#9;c-0.8,1-1.3,2.3-1.5,3.6c-0.3-1-0.6-2.9-1.1-4.2c-0.1-0.8-0.3-1.5-0.4-2.3c-0.4-1.6-2.8-0.9-2.4,0.7c0.1,0.5,0.2,1,0.3,1.6&#10;&#9;&#9;c0,0.4,0,0.8,0,1.3c-0.5-1.3-1.1-2.5-1.7-3.8c-0.8-1.4-2.9-0.2-2.2,1.3c1.1,2.1,2,4.4,2.7,6.7c-0.8-1.7-1.7-3.4-2.6-5.1&#10;&#9;&#9;c-0.4-0.6-1.2-0.8-1.8-0.4c-0.5,0.4-0.7,1.1-0.4,1.6c0.8,1.4,1.5,2.8,2.2,4.2l-1.7-2.1c-1.1-1.2-2.8,0.6-1.8,1.8&#10;&#9;&#9;c1.4,1.7,2.8,3.3,4.2,5c0.3,2.7,4.9,5.7,4.9,5.7l5-3.7C163.1,242.7,161.8,237.6,161.7,237.3z"/>
	<path class="st5_progress-100" d="M201.9,358.9v5.3c0,0-11.2-4.2-13.4-2.3c-3.2,2.8,6,8.3,15.5,10.2c1.8,0.3,3.9,0.8,5.6,0.2&#10;&#9;&#9;c2.8-1,1.6-5.2,1.6-7.4s0.1-4.6,0.2-6.9"/>
	<path class="st5_progress-100" d="M185.4,366.3v5.3c0,0-11.2-4.2-13.4-2.3c-3.2,2.8,6,8.3,15.5,10.2c1.8,0.3,3.9,0.8,5.6,0.2&#10;&#9;&#9;c2.8-1,1.6-5.2,1.6-7.4s0.1-4.6,0.2-6.9"/>
	<path class="st13_progress-100" d="M185.2,272.3c0,0-10.6,71.8-9.5,88.4c0,0,2.8,11.1,26.9,7.4c0,0,2.1-8.3,1.1-22.5s-3.5-73.4-3.5-73.4H185.2z"/>
	<path class="st13_progress-100" d="M191.1,357.1l3.6-85.6l16.2-1.5c0,0,4.6,22.2,3.2,32.9s1.6,24.8,2.3,32.2c0.6,6.6,0.9,18.1-1.4,23.3&#10;&#9;&#9;C207.3,360.5,198.9,359.8,191.1,357.1z"/>
	<path class="st6_progress-100 targetColor" d="M191.9,235.3c0,0-6.7,4.2-7.4,7.6c0,0,4.7,10.2,4.4,10.6c-5.3,6.9,10.6-4.4,10.6-4.4S196.3,239.4,191.9,235.3z&#10;&#9;&#9;" style="fill: rgb(147, 70, 252);"/>
	<path class="st9_progress-100" d="M191.9,235.3c0,0-6.7,4.2-7.4,7.6c0,0,4.7,10.2,4.4,10.6c-5.3,6.9,10.6-4.4,10.6-4.4S196.3,239.4,191.9,235.3z&#10;&#9;&#9;"/>
	<path class="st12_progress-100" d="M196.3,220.8c0,0.2-0.9,9.5,1.2,11.6s7.7,1.2,9.1-1s3.1-5.2,1.6-8.7S196.6,218.5,196.3,220.8z"/>
	<path class="st7_progress-100" d="M203.6,361.4c1.1-5.4,1.9-10.8,2.4-16.3c0.2-2.7,0.2-5.3,0.1-8c-0.2-2.8-0.6-5.5-1.2-8.2&#10;&#9;&#9;c-0.8-4.9-1.1-9.8-0.7-14.7c0.4-5,1.1-10,1.6-15.1c0.7-5.7,0.5-11.4-0.6-17c-0.2-0.7,1-1,1.1-0.3c2.2,10.1,0.1,20.2-0.9,30.3&#10;&#9;&#9;c-0.6,5.2-0.5,10.5,0.3,15.6c0.4,2.5,0.9,5,1.2,7.6c0.3,2.7,0.3,5.5,0.2,8.2c-0.4,6.1-1.3,12.1-2.6,18.1&#10;&#9;&#9;C204.6,362.4,203.4,362.1,203.6,361.4z"/>
	<path class="st9_progress-100" d="M165.8,240.6c9.9,11.4,16.2,8.3,18.7,9.6c3.4,1.7,4.8-12.5,19.8-12.4c1,0,5.8-2.1,8.4,4.3s0,24.8-1.7,28&#10;&#9;&#9;c-1.5,2.8-11.5,9.6-25.8,2.3l-0.2-6.6c0,0.2-11.2-2.2-12.1-2.6c-4.6-1.8-8.1-5.2-11.6-8.5c-0.7-0.6-9.1-8.8-6.9-9.7&#10;&#9;&#9;C157.7,243.5,162.4,239.5,165.8,240.6z"/>
	<path class="st7_progress-100" d="M177.8,264.1c8,2.9,17-0.1,21.7-7.2c0.3-0.5,1,0,0.7,0.4c-4.9,7.4-14.2,10.6-22.6,7.6&#10;&#9;&#9;C177.1,264.7,177.3,263.9,177.8,264.1z"/>
	<path class="st7_progress-100" d="M186.3,248.6c0.8-1.8,1.9-3.4,3.3-4.7c1.6-1.5,3.7-2.4,5.4-3.8c0.4-0.3,0.8,0.2,0.5,0.5&#10;&#9;&#9;c-1.6,1.3-3.5,2.2-5.1,3.6c-1.5,1.3-2.7,3-3.5,4.8C186.7,249.3,186.1,249,186.3,248.6z"/>
	<path class="st11_progress-100" d="M196.1,222.1l3,1.6c0,0-2.3,8.8-3,11.1s2.1,5.6,11.1,5.8s8.6-13.4,6.5-18.5s-8.3-7.4-13.4-6&#10;&#9;&#9;C197.5,216.6,195.6,219.3,196.1,222.1z"/>
</g>
</svg>